<svg width="24" height="25" viewBox="0 0 24 25" fill="none" xmlns="http://www.w3.org/2000/svg">
<path d="M18.809 7.03479H20.169C19.979 6.76479 19.779 6.51479 19.569 6.26479L18.809 7.03479ZM18.52 5.20479C18.27 4.99479 18.02 4.79479 17.75 4.60479V5.96479L18.52 5.20479ZM19.58 6.26579L22.53 3.31579C22.82 3.02579 22.82 2.54579 22.53 2.25579C22.3889 2.11631 22.1984 2.03809 22 2.03809C21.8016 2.03809 21.6111 2.11631 21.47 2.25579L18.52 5.20479C18.9 5.53479 19.25 5.89579 19.58 6.26579ZM17.752 3.78479C17.752 3.37479 17.412 3.03479 17.002 3.03479C16.602 3.03479 16.282 3.35479 16.262 3.74479C16.782 3.99479 17.282 4.27479 17.752 4.60479V3.78479ZM21.752 7.78479C21.752 7.37479 21.412 7.03479 21.002 7.03479H20.172C20.502 7.50479 20.792 8.00479 21.032 8.52479C21.432 8.50479 21.752 8.18479 21.752 7.78479ZM12.75 15.5348H13.05C13.44 15.5348 13.75 15.1848 13.75 14.7548C13.75 14.2148 13.6 14.1348 13.26 14.0148L12.75 13.8348V15.5348Z" fill="#A3A7AD"/>
<path d="M21.04 8.52516C21.03 8.52516 21.02 8.53516 21 8.53516H17C16.9 8.53516 16.81 8.51516 16.71 8.47516C16.5258 8.39608 16.3791 8.24931 16.3 8.06516C16.2681 7.97521 16.2512 7.8806 16.25 7.78516V3.78516C16.25 3.77516 16.26 3.76516 16.26 3.74516C14.96 3.13516 13.52 2.78516 12 2.78516C6.48 2.78516 2 7.26516 2 12.7852C2 18.3052 6.48 22.7852 12 22.7852C17.52 22.7852 22 18.3052 22 12.7852C22 11.2652 21.65 9.82516 21.04 8.52516ZM13.75 12.6052C14.39 12.8252 15.25 13.2952 15.25 14.7652C15.25 16.0152 14.26 17.0452 13.05 17.0452H12.75V17.2952C12.75 17.7052 12.41 18.0452 12 18.0452C11.59 18.0452 11.25 17.7052 11.25 17.2952V17.0452H11.17C9.84 17.0452 8.75 15.9252 8.75 14.5452C8.75 14.1252 9.09 13.7852 9.5 13.7852C9.91 13.7852 10.25 14.1252 10.25 14.5352C10.25 15.0852 10.66 15.5352 11.17 15.5352H11.25V13.3152L10.25 12.9652C9.61 12.7452 8.75 12.2752 8.75 10.8052C8.75 9.55516 9.74 8.52516 10.95 8.52516H11.25V8.28516C11.25 7.87516 11.59 7.53516 12 7.53516C12.41 7.53516 12.75 7.87516 12.75 8.28516V8.53516H12.83C14.16 8.53516 15.25 9.65516 15.25 11.0352C15.25 11.4452 14.91 11.7852 14.5 11.7852C14.09 11.7852 13.75 11.4452 13.75 11.0352C13.75 10.4852 13.34 10.0352 12.83 10.0352H12.75V12.2552L13.75 12.6052Z" fill="#A3A7AD"/>
<path d="M10.25 10.8152C10.25 11.3552 10.4 11.4352 10.74 11.5552L11.25 11.7352V10.0352H10.95C10.57 10.0352 10.25 10.3852 10.25 10.8152Z" fill="black"/>
<rect x="8" y="6.78516" width="8" height="12" fill="#A3A7AD"/>
<path d="M9.17 15.7852V9.48516H10.376L14.093 14.0212H13.517V9.48516H14.957V15.7852H13.751L10.034 11.2492H10.61V15.7852H9.17ZM8.27 13.6342V12.8782H9.638V13.6342H8.27ZM8.27 12.3922V11.6362H9.638V12.3922H8.27ZM14.516 13.6342V12.8782H15.857V13.6342H14.516ZM14.516 12.3922V11.6362H15.857V12.3922H14.516Z" fill="white"/>
</svg>
