<svg width="13" height="15" viewBox="0 0 13 15" fill="none" xmlns="http://www.w3.org/2000/svg">
    <path d="M6.5949 6.11779C6.53181 6.10987 6.46798 6.10987 6.4049 6.11779C5.73352 6.0952 5.09722 5.81251 4.63041 5.32945C4.1636 4.8464 3.90285 4.2008 3.90323 3.52904C3.90323 2.09613 5.05906 0.932377 6.4999 0.932377C7.18028 0.931196 7.83389 1.19743 8.3198 1.6737C8.80571 2.14996 9.085 2.79809 9.09746 3.47837C9.10992 4.15864 8.85456 4.81657 8.38642 5.31031C7.91829 5.80405 7.27487 6.09405 6.5949 6.11779ZM11.8357 11.3428C10.3809 12.68 8.47592 13.4205 6.4999 13.417C4.44156 13.417 2.57323 12.6332 1.16406 11.3428C1.24323 10.5986 1.71823 9.87029 2.56531 9.30029C4.73448 7.85946 8.28114 7.85946 10.4345 9.30029C11.2816 9.87029 11.7566 10.5986 11.8357 11.3428Z" stroke="#A5A5A5" stroke-width="1.1875" stroke-linecap="round" stroke-linejoin="round"/>
</svg>
